<?xml version="1.0" standalone="no"?>
<!DOCTYPE svg PUBLIC "-//W3C//DTD SVG 20010904//EN"
 "http://www.w3.org/TR/2001/REC-SVG-20010904/DTD/svg10.dtd">
<svg version="1.0" xmlns="http://www.w3.org/2000/svg"
 width="1000.000000pt" height="1000.000000pt" viewBox="0 0 1000.000000 1000.000000"
 preserveAspectRatio="xMidYMid meet">
<metadata>
Created by potrace 1.11, written by Peter Selinger 2001-2013
</metadata>
<g transform="translate(0.000000,1000.000000) scale(0.100000,-0.100000)"
fill="#000000" stroke="none">
<path d="M5303 7524 c-7 -3 -135 -134 -285 -292 -150 -157 -435 -456 -633
-662 -1087 -1135 -1665 -1765 -2146 -2341 -432 -517 -824 -1043 -866 -1163
-15 -41 -18 -83 -18 -226 0 -158 2 -182 24 -248 26 -81 74 -142 110 -142 40 0
61 20 96 94 69 146 345 539 633 901 361 454 754 902 1612 1840 723 790 993
1096 1229 1390 177 220 286 371 313 431 26 61 35 199 19 304 -16 104 -39 133
-88 114z"/>
<path d="M7373 7524 c-7 -3 -135 -134 -285 -292 -150 -157 -435 -456 -633
-662 -1087 -1135 -1665 -1765 -2146 -2341 -432 -517 -824 -1043 -866 -1163
-15 -41 -18 -83 -18 -226 0 -158 2 -182 24 -248 26 -81 74 -142 110 -142 40 0
61 20 96 94 69 146 345 539 633 901 361 454 754 902 1612 1840 723 790 993
1096 1229 1390 177 220 286 371 313 431 26 61 35 199 19 304 -16 104 -39 133
-88 114z"/>
<path d="M7770 5474 c-228 -7 -602 -26 -677 -34 -64 -7 -98 -17 -160 -49 -97
-48 -177 -110 -199 -154 -9 -17 -34 -51 -55 -74 -27 -29 -39 -52 -39 -72 0
-43 42 -87 102 -107 97 -32 486 -12 1358 71 201 19 383 40 405 46 88 24 145
82 145 146 0 26 -15 49 -81 122 -44 49 -88 93 -97 97 -17 8 -517 13 -702 8z"/>
<path d="M7293 4699 c-323 -11 -572 -29 -617 -45 -109 -39 -244 -132 -273
-187 -9 -18 -33 -52 -54 -76 -22 -24 -39 -52 -39 -63 0 -42 31 -80 87 -105
l56 -26 236 6 c386 10 1330 102 1411 138 58 26 98 64 109 107 13 46 4 64 -86
160 -62 66 -86 85 -118 92 -46 11 -399 10 -712 -1z"/>
</g>
</svg>
